# xmcd
#
# Track frame offsets:
#	150
#	16050
#	30900
#	46200
#	59250
#	73350
#	87525
#	101025
#	114000
#	124500
#	135750
#	149325
#	158925
#	173250
#
# Disc length: 2538 seconds
#
# Revision: 0
# Processed by: cddbd v1.5.2PL0 Copyright (c) Steve Scherf et al.
# Submitted via: EasyCDDAExtractor 16.0.6.1
#
DISCID=a909e80e
DTITLE=Συλλογικός δίσκος - Οι επιτυχίες δυό-δυό
DYEAR=1996
DGENRE=Λαϊκή
TTITLE0=Ανδρεάδης Θέμης - Ο Ταρζάν [Γ. Μαρκόπουλος]
TTITLE1=Μπιθικώτσης Γρηγόρης - Το θύμα ο Νικόλας [Γρ. Μπιθικώτσης]
TTITLE2=Γαλάνη Δήμητρα - Ήταν μιά φορά κι έναν καιρό [Γ. Χατζηνάσιος-Χ. Στίππα
TTITLE2=ς]
TTITLE3=Κόκοτας Σταμάτης - Στο μαγαζάκι του Μηνά [Λ. Κηλαηδόνης-Ν. Γκάτσος]
TTITLE4=Αλεξάνδρου Λάκης - Αμαρτία [Γ. Μαλλίδης]
TTITLE5=Μαράντη Μαίρη - Μαλώσαμε, μαλώσαμε [Λ. Μαρκέας-Θ. Σοφός]
TTITLE6=Διονυσίου Στράτος - Ο δάσκαλος [Θ. Δερβενιώτης-Ηρ. Παπασιδέρης]
TTITLE7=Μπιθικώτσης Γρηγόρης - Ο μπατίρης ο Λουκάς [Γρ. Μπιθικώτσης]
TTITLE8=Ρεπάνης Αντώνης - Δυό γυναίκες, δυό αγάπες [Αντ. Ρεπάνης-Κ. Κατσίπης]
TTITLE9=Γαλάνη Δήμητρα - Νταγιάντα [Γ. Σπανός-Λ. Παπαδόπουλος]
TTITLE10=Χρήστου Κωστής - Περίμενέ με [Γ. Κατσαρός-Πυθαγόρας]
TTITLE11=Μητσιάς Μανώλης - Μιά Κεφαλονίτισσα [Λ. Κηλαηδόνης-Ν. Γκάτσος]
TTITLE12=Μάνου Αφροδίτη - Ήταν τα λόγια σου φωτιά [Στ. Ξαρχάκος-Κ. Κινδύνης]
TTITLE13=Ξυλούρης Νίκος - Μπήκαν στην πόλη οι οχτροί [Γ. Μαρκόπουλος-Γ. Σεφέρη
TTITLE13=ς]
EXTD=
EXTT0=
EXTT1=
EXTT2=
EXTT3=
EXTT4=
EXTT5=
EXTT6=
EXTT7=
EXTT8=
EXTT9=
EXTT10=
EXTT11=
EXTT12=
EXTT13=
PLAYORDER=
